<mxfile host="Electron" modified="2024-05-27T00:36:53.280Z" agent="Mozilla/5.0 (Windows NT 10.0; Win64; x64) AppleWebKit/537.36 (KHTML, like Gecko) draw.io/24.4.8 Chrome/124.0.6367.207 Electron/30.0.6 Safari/537.36" etag="XVNMbU_QySTVHI266GLa" version="24.4.8" type="device">
  <diagram id="R2lEEEUBdFMjLlhIrx00" name="Page-1">
    <mxGraphModel dx="880" dy="532" grid="1" gridSize="10" guides="1" tooltips="1" connect="1" arrows="1" fold="1" page="1" pageScale="1" pageWidth="850" pageHeight="1100" math="0" shadow="0" extFonts="Permanent Marker^https://fonts.googleapis.com/css?family=Permanent+Marker">
      <root>
        <mxCell id="0" />
        <mxCell id="1" parent="0" />
        <mxCell id="uAi8uwnvfzop1rYepEJv-17" style="edgeStyle=orthogonalEdgeStyle;rounded=0;orthogonalLoop=1;jettySize=auto;html=1;exitX=0.5;exitY=0;exitDx=0;exitDy=0;entryX=0.5;entryY=1;entryDx=0;entryDy=0;" parent="1" source="uAi8uwnvfzop1rYepEJv-1" target="uAi8uwnvfzop1rYepEJv-9" edge="1">
          <mxGeometry relative="1" as="geometry">
            <mxPoint x="380" y="255" as="targetPoint" />
          </mxGeometry>
        </mxCell>
        <mxCell id="uAi8uwnvfzop1rYepEJv-40" style="edgeStyle=orthogonalEdgeStyle;rounded=0;orthogonalLoop=1;jettySize=auto;html=1;exitX=0.5;exitY=0;exitDx=0;exitDy=0;entryX=1;entryY=0.5;entryDx=0;entryDy=0;" parent="1" source="uAi8uwnvfzop1rYepEJv-1" target="uAi8uwnvfzop1rYepEJv-7" edge="1">
          <mxGeometry relative="1" as="geometry" />
        </mxCell>
        <mxCell id="uAi8uwnvfzop1rYepEJv-41" style="edgeStyle=orthogonalEdgeStyle;rounded=0;orthogonalLoop=1;jettySize=auto;html=1;exitX=0.5;exitY=0;exitDx=0;exitDy=0;entryX=0;entryY=0.5;entryDx=0;entryDy=0;" parent="1" source="uAi8uwnvfzop1rYepEJv-1" target="uAi8uwnvfzop1rYepEJv-8" edge="1">
          <mxGeometry relative="1" as="geometry" />
        </mxCell>
        <mxCell id="uAi8uwnvfzop1rYepEJv-42" style="edgeStyle=orthogonalEdgeStyle;rounded=0;orthogonalLoop=1;jettySize=auto;html=1;exitX=0.5;exitY=0;exitDx=0;exitDy=0;entryX=1;entryY=0.5;entryDx=0;entryDy=0;" parent="1" source="uAi8uwnvfzop1rYepEJv-1" target="uAi8uwnvfzop1rYepEJv-6" edge="1">
          <mxGeometry relative="1" as="geometry" />
        </mxCell>
        <mxCell id="uAi8uwnvfzop1rYepEJv-43" style="edgeStyle=orthogonalEdgeStyle;rounded=0;orthogonalLoop=1;jettySize=auto;html=1;exitX=0.5;exitY=0;exitDx=0;exitDy=0;entryX=0;entryY=0.5;entryDx=0;entryDy=0;" parent="1" source="uAi8uwnvfzop1rYepEJv-1" target="uAi8uwnvfzop1rYepEJv-5" edge="1">
          <mxGeometry relative="1" as="geometry" />
        </mxCell>
        <mxCell id="uAi8uwnvfzop1rYepEJv-44" style="edgeStyle=orthogonalEdgeStyle;rounded=0;orthogonalLoop=1;jettySize=auto;html=1;exitX=0.5;exitY=0;exitDx=0;exitDy=0;entryX=0;entryY=0.5;entryDx=0;entryDy=0;" parent="1" source="uAi8uwnvfzop1rYepEJv-1" target="uAi8uwnvfzop1rYepEJv-31" edge="1">
          <mxGeometry relative="1" as="geometry" />
        </mxCell>
        <mxCell id="VC6VoZVK7aNfX3hzjpRl-3" style="edgeStyle=orthogonalEdgeStyle;rounded=0;orthogonalLoop=1;jettySize=auto;html=1;exitX=0.5;exitY=0;exitDx=0;exitDy=0;entryX=1;entryY=0.5;entryDx=0;entryDy=0;" parent="1" source="uAi8uwnvfzop1rYepEJv-1" target="VC6VoZVK7aNfX3hzjpRl-1" edge="1">
          <mxGeometry relative="1" as="geometry" />
        </mxCell>
        <mxCell id="VC6VoZVK7aNfX3hzjpRl-5" style="edgeStyle=orthogonalEdgeStyle;rounded=0;orthogonalLoop=1;jettySize=auto;html=1;exitX=0.5;exitY=0;exitDx=0;exitDy=0;entryX=1;entryY=0.5;entryDx=0;entryDy=0;" parent="1" source="uAi8uwnvfzop1rYepEJv-1" target="VC6VoZVK7aNfX3hzjpRl-4" edge="1">
          <mxGeometry relative="1" as="geometry" />
        </mxCell>
        <mxCell id="uAi8uwnvfzop1rYepEJv-1" value="Socio" style="rounded=0;whiteSpace=wrap;html=1;fillColor=#d5e8d4;strokeColor=#82b366;" parent="1" vertex="1">
          <mxGeometry x="300" y="310" width="120" height="60" as="geometry" />
        </mxCell>
        <mxCell id="uAi8uwnvfzop1rYepEJv-50" style="edgeStyle=orthogonalEdgeStyle;rounded=0;orthogonalLoop=1;jettySize=auto;html=1;exitX=0.5;exitY=1;exitDx=0;exitDy=0;" parent="1" source="uAi8uwnvfzop1rYepEJv-2" target="uAi8uwnvfzop1rYepEJv-33" edge="1">
          <mxGeometry relative="1" as="geometry" />
        </mxCell>
        <mxCell id="uAi8uwnvfzop1rYepEJv-51" style="edgeStyle=orthogonalEdgeStyle;rounded=0;orthogonalLoop=1;jettySize=auto;html=1;exitX=0.5;exitY=1;exitDx=0;exitDy=0;entryX=0;entryY=0.5;entryDx=0;entryDy=0;" parent="1" source="uAi8uwnvfzop1rYepEJv-2" target="uAi8uwnvfzop1rYepEJv-35" edge="1">
          <mxGeometry relative="1" as="geometry" />
        </mxCell>
        <mxCell id="uAi8uwnvfzop1rYepEJv-52" style="edgeStyle=orthogonalEdgeStyle;rounded=0;orthogonalLoop=1;jettySize=auto;html=1;exitX=0.5;exitY=1;exitDx=0;exitDy=0;entryX=1;entryY=0.5;entryDx=0;entryDy=0;" parent="1" source="uAi8uwnvfzop1rYepEJv-2" target="uAi8uwnvfzop1rYepEJv-32" edge="1">
          <mxGeometry relative="1" as="geometry" />
        </mxCell>
        <mxCell id="uAi8uwnvfzop1rYepEJv-53" style="edgeStyle=orthogonalEdgeStyle;rounded=0;orthogonalLoop=1;jettySize=auto;html=1;exitX=0.5;exitY=1;exitDx=0;exitDy=0;entryX=1;entryY=0;entryDx=0;entryDy=0;" parent="1" source="uAi8uwnvfzop1rYepEJv-2" target="uAi8uwnvfzop1rYepEJv-34" edge="1">
          <mxGeometry relative="1" as="geometry" />
        </mxCell>
        <mxCell id="uAi8uwnvfzop1rYepEJv-54" style="edgeStyle=orthogonalEdgeStyle;rounded=0;orthogonalLoop=1;jettySize=auto;html=1;exitX=0.5;exitY=1;exitDx=0;exitDy=0;entryX=0;entryY=0;entryDx=0;entryDy=0;" parent="1" source="uAi8uwnvfzop1rYepEJv-2" target="uAi8uwnvfzop1rYepEJv-36" edge="1">
          <mxGeometry relative="1" as="geometry" />
        </mxCell>
        <mxCell id="uAi8uwnvfzop1rYepEJv-2" value="Canchas" style="rounded=0;whiteSpace=wrap;html=1;fillColor=#d5e8d4;strokeColor=#82b366;" parent="1" vertex="1">
          <mxGeometry x="300" y="735" width="120" height="60" as="geometry" />
        </mxCell>
        <mxCell id="uAi8uwnvfzop1rYepEJv-45" style="edgeStyle=orthogonalEdgeStyle;rounded=0;orthogonalLoop=1;jettySize=auto;html=1;exitX=0;exitY=0.5;exitDx=0;exitDy=0;entryX=1;entryY=0.5;entryDx=0;entryDy=0;" parent="1" source="uAi8uwnvfzop1rYepEJv-3" target="uAi8uwnvfzop1rYepEJv-39" edge="1">
          <mxGeometry relative="1" as="geometry" />
        </mxCell>
        <mxCell id="uAi8uwnvfzop1rYepEJv-47" style="edgeStyle=orthogonalEdgeStyle;rounded=0;orthogonalLoop=1;jettySize=auto;html=1;exitX=0;exitY=0.5;exitDx=0;exitDy=0;entryX=1;entryY=0.5;entryDx=0;entryDy=0;" parent="1" source="uAi8uwnvfzop1rYepEJv-3" target="uAi8uwnvfzop1rYepEJv-37" edge="1">
          <mxGeometry relative="1" as="geometry" />
        </mxCell>
        <mxCell id="uAi8uwnvfzop1rYepEJv-57" style="edgeStyle=orthogonalEdgeStyle;rounded=0;orthogonalLoop=1;jettySize=auto;html=1;exitX=1;exitY=0.5;exitDx=0;exitDy=0;entryX=0;entryY=0.5;entryDx=0;entryDy=0;" parent="1" source="uAi8uwnvfzop1rYepEJv-3" target="uAi8uwnvfzop1rYepEJv-55" edge="1">
          <mxGeometry relative="1" as="geometry" />
        </mxCell>
        <mxCell id="uAi8uwnvfzop1rYepEJv-58" style="edgeStyle=orthogonalEdgeStyle;rounded=0;orthogonalLoop=1;jettySize=auto;html=1;exitX=1;exitY=0.5;exitDx=0;exitDy=0;entryX=0;entryY=0.5;entryDx=0;entryDy=0;" parent="1" source="uAi8uwnvfzop1rYepEJv-3" target="uAi8uwnvfzop1rYepEJv-56" edge="1">
          <mxGeometry relative="1" as="geometry" />
        </mxCell>
        <mxCell id="uAi8uwnvfzop1rYepEJv-3" value="Partido" style="rounded=0;whiteSpace=wrap;html=1;fillColor=#d5e8d4;strokeColor=#82b366;" parent="1" vertex="1">
          <mxGeometry x="300" y="505" width="120" height="60" as="geometry" />
        </mxCell>
        <mxCell id="uAi8uwnvfzop1rYepEJv-4" value="Reserva / Unirse" style="rhombus;whiteSpace=wrap;html=1;fillColor=#ffe6cc;strokeColor=#d79b00;" parent="1" vertex="1">
          <mxGeometry x="310" y="385" width="100" height="80" as="geometry" />
        </mxCell>
        <mxCell id="uAi8uwnvfzop1rYepEJv-5" value="foto_perfil_usuario" style="ellipse;whiteSpace=wrap;html=1;fillColor=#dae8fc;strokeColor=#6c8ebf;" parent="1" vertex="1">
          <mxGeometry x="460" y="85" width="110" height="45" as="geometry" />
        </mxCell>
        <mxCell id="uAi8uwnvfzop1rYepEJv-6" value="telefono_usuario" style="ellipse;whiteSpace=wrap;html=1;fillColor=#dae8fc;strokeColor=#6c8ebf;" parent="1" vertex="1">
          <mxGeometry x="185" y="140" width="100" height="50" as="geometry" />
        </mxCell>
        <mxCell id="uAi8uwnvfzop1rYepEJv-7" value="correo_usuario" style="ellipse;whiteSpace=wrap;html=1;fillColor=#dae8fc;strokeColor=#6c8ebf;" parent="1" vertex="1">
          <mxGeometry x="185" y="85" width="100" height="45" as="geometry" />
        </mxCell>
        <mxCell id="uAi8uwnvfzop1rYepEJv-8" value="dni" style="ellipse;whiteSpace=wrap;html=1;fillColor=#dae8fc;strokeColor=#6c8ebf;" parent="1" vertex="1">
          <mxGeometry x="460" y="160" width="100" height="45" as="geometry" />
        </mxCell>
        <mxCell id="uAi8uwnvfzop1rYepEJv-9" value="&lt;u&gt;ID_usuario&amp;nbsp;&lt;/u&gt;" style="ellipse;whiteSpace=wrap;html=1;fillColor=#dae8fc;strokeColor=#6c8ebf;" parent="1" vertex="1">
          <mxGeometry x="305" y="20" width="110" height="55" as="geometry" />
        </mxCell>
        <mxCell id="uAi8uwnvfzop1rYepEJv-10" value="" style="endArrow=none;html=1;rounded=0;entryX=0.5;entryY=0;entryDx=0;entryDy=0;exitX=0.5;exitY=1;exitDx=0;exitDy=0;strokeWidth=2;" parent="1" source="uAi8uwnvfzop1rYepEJv-4" target="uAi8uwnvfzop1rYepEJv-3" edge="1">
          <mxGeometry width="50" height="50" relative="1" as="geometry">
            <mxPoint x="580" y="395" as="sourcePoint" />
            <mxPoint x="630" y="345" as="targetPoint" />
          </mxGeometry>
        </mxCell>
        <mxCell id="uAi8uwnvfzop1rYepEJv-11" value="" style="endArrow=none;html=1;rounded=0;entryX=0.5;entryY=0;entryDx=0;entryDy=0;exitX=0.5;exitY=1;exitDx=0;exitDy=0;strokeWidth=2;" parent="1" source="uAi8uwnvfzop1rYepEJv-1" target="uAi8uwnvfzop1rYepEJv-4" edge="1">
          <mxGeometry width="50" height="50" relative="1" as="geometry">
            <mxPoint x="560" y="415" as="sourcePoint" />
            <mxPoint x="600" y="415" as="targetPoint" />
          </mxGeometry>
        </mxCell>
        <mxCell id="uAi8uwnvfzop1rYepEJv-12" value="" style="endArrow=none;html=1;rounded=0;entryX=0.5;entryY=0;entryDx=0;entryDy=0;strokeWidth=2;exitX=0.5;exitY=1;exitDx=0;exitDy=0;" parent="1" source="uAi8uwnvfzop1rYepEJv-14" target="uAi8uwnvfzop1rYepEJv-2" edge="1">
          <mxGeometry width="50" height="50" relative="1" as="geometry">
            <mxPoint x="820" y="405" as="sourcePoint" />
            <mxPoint x="600" y="415" as="targetPoint" />
          </mxGeometry>
        </mxCell>
        <mxCell id="uAi8uwnvfzop1rYepEJv-14" value="Tiene" style="rhombus;whiteSpace=wrap;html=1;fillColor=#ffe6cc;strokeColor=#d79b00;" parent="1" vertex="1">
          <mxGeometry x="310" y="615" width="100" height="80" as="geometry" />
        </mxCell>
        <mxCell id="uAi8uwnvfzop1rYepEJv-15" value="" style="endArrow=none;html=1;rounded=0;strokeWidth=2;exitX=0.5;exitY=1;exitDx=0;exitDy=0;entryX=0.5;entryY=0;entryDx=0;entryDy=0;" parent="1" source="uAi8uwnvfzop1rYepEJv-3" target="uAi8uwnvfzop1rYepEJv-14" edge="1">
          <mxGeometry width="50" height="50" relative="1" as="geometry">
            <mxPoint x="710" y="505" as="sourcePoint" />
            <mxPoint x="420" y="865" as="targetPoint" />
          </mxGeometry>
        </mxCell>
        <mxCell id="uAi8uwnvfzop1rYepEJv-31" value="fecha_Nac" style="ellipse;whiteSpace=wrap;html=1;fillColor=#dae8fc;strokeColor=#6c8ebf;" parent="1" vertex="1">
          <mxGeometry x="460" y="230" width="100" height="50" as="geometry" />
        </mxCell>
        <mxCell id="uAi8uwnvfzop1rYepEJv-32" value="nombre" style="ellipse;whiteSpace=wrap;html=1;fillColor=#dae8fc;strokeColor=#6c8ebf;" parent="1" vertex="1">
          <mxGeometry x="170" y="795" width="80" height="45" as="geometry" />
        </mxCell>
        <mxCell id="uAi8uwnvfzop1rYepEJv-33" value="&lt;u&gt;ID_cancha&lt;/u&gt;" style="ellipse;whiteSpace=wrap;html=1;fillColor=#dae8fc;strokeColor=#6c8ebf;" parent="1" vertex="1">
          <mxGeometry x="315" y="870" width="90" height="55" as="geometry" />
        </mxCell>
        <mxCell id="uAi8uwnvfzop1rYepEJv-34" value="capacidad" style="ellipse;whiteSpace=wrap;html=1;fillColor=#dae8fc;strokeColor=#6c8ebf;" parent="1" vertex="1">
          <mxGeometry x="220" y="855" width="80" height="45" as="geometry" />
        </mxCell>
        <mxCell id="uAi8uwnvfzop1rYepEJv-35" value="horarios_cancha" style="ellipse;whiteSpace=wrap;html=1;fillColor=#dae8fc;strokeColor=#6c8ebf;" parent="1" vertex="1">
          <mxGeometry x="470" y="791.88" width="100" height="51.25" as="geometry" />
        </mxCell>
        <mxCell id="uAi8uwnvfzop1rYepEJv-36" value="disponible" style="ellipse;whiteSpace=wrap;html=1;fillColor=#dae8fc;strokeColor=#6c8ebf;" parent="1" vertex="1">
          <mxGeometry x="420" y="855" width="80" height="45" as="geometry" />
        </mxCell>
        <mxCell id="uAi8uwnvfzop1rYepEJv-37" value="Hs" style="ellipse;whiteSpace=wrap;html=1;fillColor=#dae8fc;strokeColor=#6c8ebf;" parent="1" vertex="1">
          <mxGeometry x="175" y="570" width="80" height="45" as="geometry" />
        </mxCell>
        <mxCell id="uAi8uwnvfzop1rYepEJv-38" value="fecha" style="ellipse;whiteSpace=wrap;html=1;fillColor=#dae8fc;strokeColor=#6c8ebf;" parent="1" vertex="1">
          <mxGeometry x="170" y="512.5" width="80" height="45" as="geometry" />
        </mxCell>
        <mxCell id="uAi8uwnvfzop1rYepEJv-39" value="&lt;u&gt;ID_partido&lt;/u&gt;" style="ellipse;whiteSpace=wrap;html=1;fillColor=#dae8fc;strokeColor=#6c8ebf;" parent="1" vertex="1">
          <mxGeometry x="175" y="452.5" width="80" height="45" as="geometry" />
        </mxCell>
        <mxCell id="uAi8uwnvfzop1rYepEJv-46" style="edgeStyle=orthogonalEdgeStyle;rounded=0;orthogonalLoop=1;jettySize=auto;html=1;exitX=0;exitY=0.5;exitDx=0;exitDy=0;entryX=1;entryY=0.5;entryDx=0;entryDy=0;" parent="1" source="uAi8uwnvfzop1rYepEJv-3" target="uAi8uwnvfzop1rYepEJv-38" edge="1">
          <mxGeometry relative="1" as="geometry">
            <mxPoint x="250" y="528" as="targetPoint" />
          </mxGeometry>
        </mxCell>
        <mxCell id="uAi8uwnvfzop1rYepEJv-48" value="1:N" style="text;html=1;align=center;verticalAlign=middle;resizable=0;points=[];autosize=1;strokeColor=none;fillColor=none;" parent="1" vertex="1">
          <mxGeometry x="410" y="410" width="40" height="30" as="geometry" />
        </mxCell>
        <mxCell id="uAi8uwnvfzop1rYepEJv-49" value="N:1" style="text;html=1;align=center;verticalAlign=middle;resizable=0;points=[];autosize=1;strokeColor=none;fillColor=none;" parent="1" vertex="1">
          <mxGeometry x="410" y="640" width="40" height="30" as="geometry" />
        </mxCell>
        <mxCell id="uAi8uwnvfzop1rYepEJv-55" value="ID_usuario&lt;div&gt;(Fk)&lt;/div&gt;" style="ellipse;whiteSpace=wrap;html=1;fillColor=#dae8fc;strokeColor=#6c8ebf;" parent="1" vertex="1">
          <mxGeometry x="460" y="485" width="80" height="45" as="geometry" />
        </mxCell>
        <mxCell id="uAi8uwnvfzop1rYepEJv-56" value="ID_cancha&lt;div&gt;(Fk)&lt;/div&gt;" style="ellipse;whiteSpace=wrap;html=1;fillColor=#dae8fc;strokeColor=#6c8ebf;" parent="1" vertex="1">
          <mxGeometry x="455" y="545" width="80" height="45" as="geometry" />
        </mxCell>
        <mxCell id="VC6VoZVK7aNfX3hzjpRl-1" value="Nombre" style="ellipse;whiteSpace=wrap;html=1;fillColor=#dae8fc;strokeColor=#6c8ebf;" parent="1" vertex="1">
          <mxGeometry x="180" y="200" width="100" height="50" as="geometry" />
        </mxCell>
        <mxCell id="VC6VoZVK7aNfX3hzjpRl-4" value="Apellido" style="ellipse;whiteSpace=wrap;html=1;fillColor=#dae8fc;strokeColor=#6c8ebf;" parent="1" vertex="1">
          <mxGeometry x="180" y="260" width="100" height="50" as="geometry" />
        </mxCell>
      </root>
    </mxGraphModel>
  </diagram>
</mxfile>
